<?xml version="1.0" encoding="utf-8"?>
<!-- Generator: Adobe Illustrator 24.0.2, SVG Export Plug-In . SVG Version: 6.00 Build 0)  -->
<svg version="1.1" id="Layer_1" xmlns="http://www.w3.org/2000/svg" xmlns:xlink="http://www.w3.org/1999/xlink" x="0px" y="0px"
	 viewBox="0 0 1037.4 739.6" style="enable-background:new 0 0 1037.4 739.6;" xml:space="preserve">
<style type="text/css">
	.st0{fill:#001551;}
	.st1{fill:#3160FF;}
	.st2{fill:#ADA8A9;}
	.st3{clip-path:url(#SVGID_2_);}
	.st4{clip-path:url(#SVGID_6_);}
	.st5{fill:#FFFFFF;}
	.st6{opacity:0.5;fill:#0005FF;}
	.st7{fill:#0005FF;}
</style>
<path class="st6" d="M1514,1424.9H-595.2c-21.1,0-38.3-17.1-38.3-38.3V-648.2c0-21.1,17.1-38.3,38.3-38.3H1514
	c21.1,0,38.3,17.1,38.3,38.3v2034.8C1552.3,1407.7,1535.1,1424.9,1514,1424.9"/>
<g>
	<g>
		<g>
			<g>
				<path class="st5" d="M23.6,621.5H0V507.3h23.6V621.5z"/>
				<path class="st5" d="M79.5,621.5H56.2V507.3h27l49.6,74.5v-74.5h23.3v114.2H132l-52.5-78.8V621.5z"/>
				<path class="st5" d="M212.7,530.2h-34.3v-22.9h92v22.9h-34.3v91.3h-23.5V530.2z"/>
				<path class="st5" d="M367.5,507.3v22.2H316v23.2h46.1v22.2H316v24.6h51.8v22h-75.1V507.3H367.5z"/>
				<path class="st5" d="M418.8,507.3V599h48.8v22.5h-72.3V507.3H418.8z"/>
				<path class="st5" d="M512.7,507.3V599h48.9v22.5h-72.3V507.3H512.7z"/>
				<path class="st5" d="M606.8,621.5h-23.6V507.3h23.6V621.5z"/>
				<path class="st5" d="M642,621.5V507.3h38.2c13.1,0,23,3.4,29.9,9.9c6.8,6.6,10.2,14.7,10.2,24.4c0,10.2-3.7,18.7-11.1,25.4
					c-7.4,6.6-17.8,9.9-31.1,9.9H654v44.6H642z M654,565.8h24.6c9.8,0,17.1-2.3,22-7c4.9-4.8,7.4-10.4,7.4-16.8
					c0-6.6-2.2-12.1-6.7-16.6c-4.5-4.5-11.8-6.9-22.2-6.9H654V565.8z"/>
				<path class="st5" d="M736.7,621.5h-12.3l49.3-114.2h13.6l49.3,114.2h-12.7l-12.4-29.2h-62.3L736.7,621.5z M806.9,581.4
					l-26.5-61.7l-26.6,61.7H806.9z"/>
				<path class="st5" d="M873.4,518.5h-38.2v-11.2h88.4v11.2h-38v103h-12.1V518.5z"/>
				<path class="st5" d="M960.4,621.5h-11.9V507.3h11.9v50.5h65v-50.5h11.9v114.2h-11.9v-52.2h-65V621.5z"/>
			</g>
		</g>
		<g>
			<g>
				<path class="st5" d="M182.3,721.3l6.8-3.5c3.8,9.3,9.5,14.4,19.1,14.4c4.5,0,8.3-1.2,11.4-3.6c3.2-2.4,4.7-5.5,4.7-9.4
					c0-7.6-5.9-12.1-17.4-14.9c-15.3-3.7-22.3-10.3-22.3-20.7c0-6.2,2.3-11.1,6.9-14.8c4.6-3.7,10.1-5.6,16.6-5.6
					c11.8,0,20.1,6.1,23.6,15.6l-6.7,3.7c-3.1-7.9-8.9-11.9-17.1-11.9c-4.2,0-7.8,1.2-10.9,3.5c-3.1,2.4-4.6,5.5-4.6,9.2
					c0,6.8,4.6,10.4,16,13.4c8.8,2.2,15.1,5.4,18.8,9.5c3.4,3.7,5.2,7.9,5.2,12.6c0,5.7-2.2,10.7-6.6,14.8
					c-4.4,4.1-10.2,6.1-17.5,6.1C195.5,739.6,186.9,733.4,182.3,721.3z"/>
				<path class="st5" d="M318.7,728.5c-7.2,7.4-16.1,11.1-27,11.1c-10.6,0-19.6-3.6-26.7-10.9c-7.2-7.4-10.7-16.3-10.7-27
					c0-10.8,3.6-20,10.8-27.3c7.2-7.4,16.1-11.1,26.9-11.1c10.6,0,19.5,3.6,26.7,11c7.2,7.3,10.8,16.2,10.8,27
					C329.5,712,325.9,721.1,318.7,728.5z M313,679.7c-5.6-6-12.7-9.1-21.2-9.1c-8.5,0-15.5,3-21,9c-5.5,5.9-8.3,13.1-8.3,21.6
					c0,8.6,2.8,15.9,8.4,22c5.6,6,12.7,9.1,21.2,9.1c8.5,0,15.5-3,21-8.9c5.5-6,8.3-13.2,8.3-21.7C321.4,693,318.6,685.7,313,679.7z
					"/>
				<path class="st5" d="M364.4,731.4h35.4v7.4h-43.3V664h7.8V731.4z"/>
				<path class="st5" d="M475.6,664v45.6c0,19-10.4,30-28.1,30c-8.9,0-15.9-2.7-20.7-8c-4.9-5.3-7.4-12.5-7.4-21.5V664h7.8v45.7
					c0,15.6,8,22.6,20.5,22.6c12.9,0,20-8,20-22.1V664H475.6z"/>
				<path class="st5" d="M523.6,671.3h-25V664h57.9v7.4h-24.9v67.5h-7.9V671.3z"/>
				<path class="st5" d="M588.2,738.8h-7.8V664h7.8V738.8z"/>
				<path class="st5" d="M679.6,728.5c-7.2,7.4-16.1,11.1-26.9,11.1c-10.6,0-19.6-3.6-26.8-10.9c-7.2-7.4-10.7-16.3-10.7-27
					c0-10.8,3.6-20,10.8-27.3c7.2-7.4,16.1-11.1,26.9-11.1c10.6,0,19.5,3.6,26.7,11c7.2,7.3,10.8,16.2,10.8,27
					C690.4,712,686.8,721.1,679.6,728.5z M673.9,679.7c-5.7-6-12.7-9.1-21.2-9.1c-8.5,0-15.5,3-21,9c-5.5,5.9-8.3,13.1-8.3,21.6
					c0,8.6,2.8,15.9,8.4,22c5.7,6,12.7,9.1,21.2,9.1c8.5,0,15.5-3,21-8.9c5.5-6,8.3-13.2,8.3-21.7
					C682.3,693,679.5,685.7,673.9,679.7z"/>
				<path class="st5" d="M778.5,738.8h-8.4l-44.8-63.7v63.7h-7.7V664h9.1l44.1,62.5V664h7.7V738.8z"/>
				<path class="st5" d="M805.1,721.3l6.8-3.5c3.8,9.3,9.5,14.4,19.1,14.4c4.5,0,8.3-1.2,11.4-3.6c3.2-2.4,4.7-5.5,4.7-9.4
					c0-7.6-5.9-12.1-17.4-14.9c-15.3-3.7-22.4-10.3-22.4-20.7c0-6.2,2.3-11.1,6.9-14.8c4.6-3.7,10.1-5.6,16.6-5.6
					c11.9,0,20.1,6.1,23.6,15.6l-6.7,3.7c-3.1-7.9-8.9-11.9-17.1-11.9c-4.2,0-7.8,1.2-10.9,3.5c-3,2.4-4.6,5.5-4.6,9.2
					c0,6.8,4.6,10.4,16,13.4c8.8,2.2,15.1,5.4,18.8,9.5c3.4,3.7,5.2,7.9,5.2,12.6c0,5.7-2.2,10.7-6.6,14.8
					c-4.4,4.1-10.2,6.1-17.5,6.1C818.3,739.6,809.7,733.4,805.1,721.3z"/>
			</g>
		</g>
		<g>
			<polygon class="st5" points="340.4,417.9 323.6,432.8 318.1,426.6 315.3,429 328.5,443.9 328.9,444.4 331.7,441.9 326.1,435.7 
				343,420.8 			"/>
			<polygon class="st5" points="327.3,401.7 325.1,398.6 315.7,404.9 308.5,394.1 317.5,388.1 318,387.8 315.8,384.6 294.6,398.7 
				294.1,399.1 296.2,402.3 305.4,396.2 312.6,406.9 303.9,412.7 303.4,413 305.5,416.2 326.8,402.1 			"/>
			<polygon class="st5" points="308.5,371.2 301.2,355.9 297.9,357.5 303.6,369.3 296.5,372.7 291.4,362 288.1,363.6 293.2,374.3 
				286.5,377.5 280.9,365.8 277.6,367.3 284.9,382.5 308,371.5 			"/>
			<polygon class="st5" points="290.7,325.4 289.7,321.7 265.1,328.3 264.5,328.5 265.5,332.2 290.1,325.6 			"/>
			<polygon class="st5" points="286.2,307.1 285.7,303.4 266,306.2 283.5,289.7 283.7,289.5 283.2,285.8 257.9,289.5 257.3,289.5 
				257.9,293.3 277.2,290.5 260.1,306.7 259.8,306.9 260.4,310.8 285.6,307.2 			"/>
			<polygon class="st5" points="259.9,264.8 282.3,264.9 282.4,261 260,261 260,252.7 256.3,252.7 256.3,272.5 256.3,273.1 
				259.9,273.1 			"/>
			<polygon class="st5" points="283.2,240.5 285.3,224.3 285.3,223.7 281.7,223.3 280.1,236.3 272.3,235.3 273.8,224.1 273.8,223.5 
				270.2,223.1 268.7,234.9 261.4,233.9 262.9,221.6 263,221 259.4,220.6 257.3,236.7 257.3,237.3 282.6,240.5 			"/>
			<polygon class="st5" points="288.1,210.2 292,195.1 288.4,194.2 285.5,205.6 264.4,200.2 263.8,200 262.8,203.7 287.5,210.1 			
				"/>
			<polygon class="st5" points="295.8,183.4 301.5,168.9 298,167.5 293.8,178.5 273.4,170.7 272.9,170.4 271.5,174 295.3,183.2 			
				"/>
			<polygon class="st5" points="308.7,154.1 285.3,142.3 283.6,145.7 306.9,157.5 			"/>
			<path class="st5" d="M304.3,134.7c2.4,1.6,5,2.4,7.6,2.4c0.7,0,1.5-0.1,2.2-0.2c3.4-0.6,6.2-2.5,8.4-5.7c2.1-3.1,2.8-6.2,2.1-9.3
				c-0.6-3.1-2.4-5.6-5.2-7.5l-1.3-0.9l-7.6,11.5l-0.3,0.5l3,2l5.7-8.6c1.4,1.2,2.1,2.7,2.2,4.5c0.2,2-0.4,3.9-1.6,5.7
				c-1.5,2.3-3.5,3.6-6,4c-2.5,0.4-4.9-0.2-7.2-1.8c-2.3-1.5-3.7-3.5-4.2-6c-0.5-2.5,0-4.8,1.4-6.9c1.2-1.9,2.7-3,4.3-3.5
				c1.7-0.5,3.4-0.6,5-0.1l0.6,0.2l0.6-3.8l-0.5-0.1c-2.2-0.6-4.6-0.5-6.9,0.3c-2.4,0.8-4.5,2.4-6.1,5c-2.1,3.1-2.7,6.4-2,9.9
				C299.2,129.8,301.2,132.6,304.3,134.7z"/>
			<polygon class="st5" points="337.1,105.7 331.3,100.5 339.2,91.6 336.5,89.2 328.6,98 323.1,93.1 331.3,83.9 331.8,83.4 329,81 
				318.3,93.1 317.9,93.5 337.3,110.9 348.2,98.8 348.6,98.3 345.9,95.9 			"/>
			<polygon class="st5" points="358.1,54.9 355.2,57.3 367.7,72.3 345,66.2 344.6,66.1 341.6,68.7 358,88.2 358.4,88.7 361.3,86.2 
				348.5,71 372,77.3 374.9,74.9 358.5,55.3 			"/>
			<polygon class="st5" points="390.4,37.5 388.4,34.4 371,45.3 373,48.4 380,44 391.6,62.6 392,63.1 395.2,61 383.3,42 			"/>
			<path class="st5" d="M435.9,15.8c-2.1-0.9-4.6-0.8-7.3,0.2l-8.4,3.1l9,24.6l3.6-1.3l-3.4-9.2l4.4-1.6c2.8-1,4.8-2.6,5.9-4.7
				c1.1-2.1,1.2-4.3,0.4-6.5C439.3,18.3,437.9,16.7,435.9,15.8z M434.2,19.3c1.1,0.5,1.9,1.3,2.3,2.6c0.4,1.1,0.3,2.3-0.2,3.5
				c-0.6,1.2-1.8,2.1-3.7,2.8l-4.5,1.7l-3.1-8.5l4.6-1.7C431.6,18.9,433.1,18.8,434.2,19.3z"/>
			<path class="st5" d="M462.5,6.2L458.8,7l-5.3,28l3.9-0.9l1.3-6.8l12.5-2.8l4,5.6l4-0.9L462.7,6.6L462.5,6.2z M468.9,21.4
				l-9.5,2.1l2.3-12.1L468.9,21.4z"/>
			<polygon class="st5" points="503.4,0.4 483,2.4 483.3,6 491.6,5.3 493.8,27.6 497.6,27.2 495.4,4.9 503.7,4.1 			"/>
			<polygon class="st5" points="535.3,11.6 522.4,11.1 522.8,0.2 519,0 517.9,26.1 521.8,26.2 522.2,14.9 535.2,15.4 534.7,26.7 
				538.5,26.9 539.5,0.8 535.7,0.6 			"/>
			<polygon class="st5" points="574.6,6 573.7,9.6 581.8,11.6 576.2,33.3 579.9,34.3 585.5,12.6 592.9,14.5 593.5,14.7 594.4,11.1 
				575.2,6.2 			"/>
			<path class="st5" d="M619,19.9c-3.4-1.4-6.9-1.4-10.1-0.1c-3.3,1.4-5.7,3.9-7.1,7.3c-1.4,3.4-1.5,6.8-0.2,10.1
				c1.3,3.3,3.7,5.7,7.2,7.1c1.7,0.7,3.5,1.1,5.2,1.1c1.7,0,3.3-0.4,5-1.1c3.3-1.4,5.7-3.9,7.1-7.3c1.4-3.4,1.4-6.8,0.1-10.1
				C624.8,23.7,622.4,21.3,619,19.9z M622.3,35.7c-1,2.5-2.7,4.2-5,5.3c-1.2,0.5-2.4,0.8-3.5,0.8c-1.1,0-2.4-0.2-3.5-0.7
				c-2.4-1-4.1-2.8-5-5.2c-0.9-2.4-0.8-4.9,0.2-7.4c1-2.5,2.7-4.2,5-5.2c1.2-0.5,2.4-0.8,3.6-0.8c1.1,0,2.3,0.2,3.5,0.7
				c2.4,1,4.1,2.8,5,5.2C623.5,30.8,623.4,33.2,622.3,35.7z"/>
			<polygon class="st5" points="664.9,49.1 675,56.2 675.4,56.6 677.5,53.6 664.4,44.3 663.9,43.9 648.8,65.2 662.1,74.6 662.6,75 
				664.7,72 654,64.4 658.5,58.1 667.7,64.6 668.2,64.9 670.3,62 660.6,55.1 			"/>
			<polygon class="st5" points="686.2,95.9 688.9,98.4 706.5,79.9 707,79.4 704.2,76.8 690.8,91 694.1,67.6 694.2,67.3 691.3,64.6 
				673.3,83.6 676.1,86.2 689.8,71.7 686.3,95.6 			"/>
			<polygon class="st5" points="709,122.3 709.4,122.8 712.3,120.5 704.1,110.2 710.2,105.3 717.6,114.7 720.5,112.4 713.1,103.1 
				718.9,98.5 727,108.7 729.8,106.4 719.4,93.2 698.8,109.5 			"/>
			<path class="st5" d="M719.2,137.4l8.6-5.2l2.1,3.6l-4.7,11.2l-0.1,0.3l2.4,4l5.1-12.2c1.2,1.2,2.5,2.1,4.1,2.5
				c1.9,0.5,3.8,0.2,5.7-0.9c1.9-1.2,3.1-2.8,3.6-5c0.5-2.1-0.1-4.5-1.6-7.1l-4.7-7.9l-22.4,13.4L719.2,137.4z M738.5,125.9l2.7,4.5
				c1,1.8,1.4,3.4,1.1,4.7c-0.3,1-0.9,1.8-1.9,2.4c-1,0.6-2.2,0.8-3.4,0.4c-1.2-0.3-2.4-1.4-3.3-3l-2.7-4.4L738.5,125.9z"/>
			<path class="st5" d="M736.8,162.3c-1.4,3.2-1.3,6.6,0.2,10.2c1.4,3.4,3.7,5.7,6.6,6.9c1.4,0.6,2.8,0.9,4.3,0.9
				c1.6,0,3.2-0.4,4.9-1l1.5-0.6l-5.6-13.3l-3.4,1.4l4,9.5c-1.8,0.5-3.4,0.3-5-0.6c-1.8-1-3.1-2.4-3.9-4.5c-1.1-2.6-1.1-4.9,0-7.2
				c1.1-2.3,2.9-3.9,5.5-5c2.5-1.1,5-1.1,7.3-0.2c2.3,1,4,2.6,5,5c0.9,2,1,3.9,0.5,5.6c-0.5,1.7-1.4,3.1-2.6,4.2l-0.5,0.5l2.8,2.6
				l0.4-0.4c1.8-1.5,2.9-3.6,3.6-6c0.7-2.4,0.4-5.1-0.7-7.9c-1.4-3.4-3.9-5.8-7.2-7.1c-3.3-1.3-6.8-1.2-10.2,0.2
				C740.7,156.8,738.2,159.1,736.8,162.3z"/>
			<polygon class="st5" points="747.2,202.1 748.1,205.8 758.8,203.1 776,209.2 774.9,204.9 762,200.3 771,190.5 771.2,190.2 
				770,185.7 757.8,199.4 			"/>
			<path class="st5" d="M773.4,243c-3.7,0.2-6.1,2.8-7.1,8.2c-0.7,3.7-2,5.4-4.1,5.5H762c-1,0-1.9-0.4-2.5-1.2
				c-0.7-0.9-1.2-2-1.2-3.4c-0.1-2.8,1.1-4.6,4.2-6l0.6-0.3l-1.9-3.2l-0.5,0.2c-4.2,1.8-6.2,5-6.1,9.4c0.1,2.6,0.9,4.6,2.5,6.1
				c1.4,1.4,3.2,2.1,5.1,2.1c0.1,0,0.2,0,0.4,0c1.7-0.1,3.2-0.8,4.5-2.1c1.4-1.4,2.4-3.6,3-6.7c0.9-4.1,2.1-4.9,3.6-5h0.2
				c1,0,1.8,0.4,2.4,1.2c0.7,0.9,1.1,1.9,1.2,3.2c0.1,2.5-1,4.2-3.3,5.3l-0.6,0.3l2,3.2l0.5-0.2c3.5-1.4,5.4-4.6,5.2-8.6
				c-0.1-2.3-0.9-4.3-2.3-5.8c-1.3-1.5-3.1-2.3-5.1-2.3C773.6,242.9,773.5,242.9,773.4,243z"/>
			<path class="st5" d="M754.9,274.4l6.1,3.3l-1.1,12.7l-6.2,2l-0.4,0.1l-0.3,4.1l26.5-8.8l0.4-0.1l0.3-3.7l-25-13.4L754.9,274.4z
				 M763.6,289.1l0.8-9.7l10.8,5.8L763.6,289.1z"/>
			<polygon class="st5" points="749.6,313.5 748.8,317.2 772,333.1 772.9,329.1 754.3,316.5 776.1,313.1 776.5,313.1 777.4,308.9 
				750,313.4 			"/>
			
				<rect x="752.2" y="332" transform="matrix(0.3309 -0.9437 0.9437 0.3309 178.9367 942.5651)" class="st5" width="3.8" height="26.1"/>
			<polygon class="st5" points="735.7,357 734.1,360.4 751.9,369.2 728.2,372.9 727.9,373 726.2,376.3 749.2,387.6 749.7,387.9 
				751.4,384.5 733.9,375.8 757.2,372.1 757.5,372.1 759.2,368.5 736.3,357.3 			"/>
			<path class="st5" d="M720.5,392.6c-3.4,0.5-6.3,2.4-8.5,5.6c-2.1,3-2.9,6.1-2.3,9.2c0.6,3.1,2.3,5.7,5.1,7.6l1.3,0.9l8.3-11.8
				l-3-2.1l-5.9,8.5c-1.3-1.2-2.1-2.7-2.2-4.5c-0.1-2,0.4-3.9,1.7-5.7c1.6-2.3,3.6-3.6,6.1-3.9c2.5-0.3,4.9,0.3,7.2,1.9
				c2.3,1.6,3.6,3.6,4.1,6.1c0.4,2.5-0.1,4.8-1.5,6.9c-1.3,1.8-2.7,3-4.4,3.4c-1.7,0.5-3.4,0.5-5,0l-0.7-0.2l-0.7,3.8l0.5,0.1
				c1,0.3,2.1,0.4,3.1,0.4c1.3,0,2.6-0.2,3.8-0.6c2.4-0.7,4.5-2.4,6.2-4.8c2.1-3,2.8-6.4,2.2-9.9c-0.7-3.5-2.6-6.4-5.7-8.5
				C727.3,392.9,723.9,392.1,720.5,392.6z"/>
			<path class="st5" d="M700.6,431.1c-3.2,2.1-5.2,2.4-6.8,0.9c-0.8-0.7-1.2-1.6-1-2.8c0.1-1.2,0.6-2.2,1.5-3.2
				c1.9-2.1,4-2.4,7.2-1.2l0.6,0.2l1-3.6l-0.5-0.2c-4.2-1.7-8-0.9-11,2.3c-1.7,1.9-2.6,3.9-2.6,6.1c0,2.2,0.8,4,2.3,5.4
				c1.3,1.2,2.8,1.7,4.7,1.7c1.9,0,4.2-0.9,6.8-2.6c3.1-2,4.7-2.3,6.1-0.9c0.8,0.7,1.1,1.6,1,2.7c-0.1,1.1-0.6,2.2-1.4,3.1
				c-1.7,1.9-3.7,2.3-6.1,1.3l-0.6-0.2l-0.9,3.7l0.5,0.2c1.1,0.4,2.2,0.7,3.3,0.7c2.4,0,4.7-1.1,6.5-3.1c1.5-1.7,2.4-3.6,2.5-5.7
				c0.1-2.1-0.6-4-2.2-5.5C708.6,427.8,705.2,428,700.6,431.1z"/>
		</g>
	</g>
	<g>
		<path class="st5" d="M441.3,279.6l87.9-79.2L413.4,205l96.4-68.8L492,80.7l11.9-3.8l16.6,51.6l13.8-9.9l-15.4-47.9l11.9-3.8
			L545,111l50.6-36.1c-23.7-9.7-49.7-15.1-76.9-15.1c-112.1,0-203,90.9-203,203c0,108.7,85.4,197.4,192.7,202.8l-78.4-132.4
			C412.3,303.4,441.3,279.6,441.3,279.6z"/>
		<polygon class="st5" points="537.8,182.4 554.6,181.8 539.8,135.8 527.1,149.3 		"/>
		<polygon class="st5" points="494.5,184.1 524.8,182.9 517.4,159.7 		"/>
		<path class="st5" d="M721.7,262.8c0-84.5-51.6-156.9-125.1-187.5l-47,50.1l18,56l45.6-1.7c0,0-16.4,9.8-38.7,23.3l20.2,62.8
			l-11.9,3.8l-19.3-60c-4.6,2.8-9.4,5.7-14.2,8.6l18.5,57.5l-11.9,3.8l-17.6-54.6c-41.2,25.2-84.7,52.3-87.9,56.7
			c-6.1,8.5,11.4,25.6,11.4,25.6l153.3,134.4C678.6,407.1,721.7,340,721.7,262.8z"/>
		<path class="st5" d="M447.2,319.2l85,146.1c21.8-1.4,42.7-6.3,62.1-14.1L447.2,319.2z"/>
	</g>
</g>
</svg>
