<?xml version="1.0" encoding="utf-8"?>
<!-- Generator: Adobe Illustrator 24.0.2, SVG Export Plug-In . SVG Version: 6.00 Build 0)  -->
<svg version="1.1" id="Layer_1" xmlns="http://www.w3.org/2000/svg" xmlns:xlink="http://www.w3.org/1999/xlink" x="0px" y="0px"
	 viewBox="0 0 825.1 825.1" style="enable-background:new 0 0 825.1 825.1;" xml:space="preserve">
<style type="text/css">
	.st0{fill:#001551;}
	.st1{fill:#3160FF;}
	.st2{fill:#ADA8A9;}
	.st3{clip-path:url(#SVGID_2_);}
	.st4{clip-path:url(#SVGID_6_);}
	.st5{fill:#FFFFFF;}
	.st6{opacity:0.5;fill:#0005FF;}
	.st7{fill:#0005FF;}
</style>
<g>
	
		<image style="overflow:visible;opacity:0.79;" width="3438" height="3438" xlink:href="B56C8D3C.png"  transform="matrix(0.24 0 0 0.24 0 0)">
	</image>
	<g>
		<circle class="st5" cx="407.6" cy="407.6" r="364.5"/>
	</g>
</g>
<g>
	<path class="st0" d="M316.4,427.6l103.6-93.4l-136.6,5.4l113.6-81.1l-21-65.3l14-4.5l19.5,60.8l16.3-11.6l-18.1-56.5l14-4.5
		l16.7,52l59.7-42.6c-28-11.5-58.6-17.8-90.7-17.8c-132.1,0-239.2,107.1-239.2,239.2c0,128.1,100.6,232.6,227.1,238.9l-92.4-156
		C282.2,455.7,316.4,427.6,316.4,427.6z"/>
	<polygon class="st7" points="430.1,313.1 449.9,312.4 432.5,258.1 417.6,274 	"/>
	<polygon class="st7" points="379.1,315 414.8,313.7 406,286.3 	"/>
	<path class="st7" d="M646.8,407.8c0-99.6-60.9-184.9-147.4-220.9l-55.4,59l21.2,65.9l53.8-2c0,0-19.3,11.5-45.6,27.4l23.8,74
		l-14,4.5L460.4,345c-5.4,3.3-11,6.7-16.8,10.2l21.8,67.8l-14,4.5l-20.7-64.4c-48.6,29.7-99.8,61.7-103.5,66.8
		c-7.2,10,13.4,30.2,13.4,30.2l180.6,158.3C596,577.9,646.8,498.8,646.8,407.8z"/>
	<path class="st0" d="M323.4,474.3l100.2,172.1c25.7-1.7,50.3-7.4,73.1-16.6L323.4,474.3z"/>
</g>
</svg>
