<?xml version="1.0" encoding="utf-8"?>
<!-- Generator: Adobe Illustrator 24.0.2, SVG Export Plug-In . SVG Version: 6.00 Build 0)  -->
<svg version="1.1" id="Layer_1" xmlns="http://www.w3.org/2000/svg" xmlns:xlink="http://www.w3.org/1999/xlink" x="0px" y="0px"
	 viewBox="0 0 1037.4 232.3" style="enable-background:new 0 0 1037.4 232.3;" xml:space="preserve">
<style type="text/css">
	.st0{fill:#001551;}
	.st1{fill:#3160FF;}
	.st2{fill:#ADA8A9;}
	.st3{clip-path:url(#SVGID_2_);}
	.st4{clip-path:url(#SVGID_6_);}
	.st5{fill:#FFFFFF;}
	.st6{opacity:0.5;fill:#0005FF;}
	.st7{fill:#0005FF;}
</style>
<g>
	<g>
		<g>
			<path class="st0" d="M23.6,114.2H0V0h23.6V114.2z"/>
			<path class="st0" d="M79.5,114.2H56.2V0h27l49.6,74.5V0h23.3v114.2H132L79.5,35.4V114.2z"/>
			<path class="st0" d="M212.7,22.9h-34.3V0h92v22.9h-34.3v91.3h-23.5V22.9z"/>
			<path class="st0" d="M367.5,0v22.2H316v23.2h46.1v22.2H316v24.6h51.8v22h-75.1V0H367.5z"/>
			<path class="st0" d="M418.8,0v91.7h48.8v22.5h-72.3V0H418.8z"/>
			<path class="st0" d="M512.7,0v91.7h48.9v22.5h-72.3V0H512.7z"/>
			<path class="st0" d="M606.8,114.2h-23.6V0h23.6V114.2z"/>
			<path class="st0" d="M642,114.2V0h38.2c13.1,0,23,3.4,29.9,9.9c6.8,6.6,10.2,14.7,10.2,24.4c0,10.2-3.7,18.7-11.1,25.4
				c-7.4,6.6-17.8,9.9-31.1,9.9H654v44.6H642z M654,58.5h24.6c9.8,0,17.1-2.3,22-7c4.9-4.8,7.4-10.4,7.4-16.8
				c0-6.6-2.2-12.1-6.7-16.6c-4.5-4.5-11.8-6.9-22.2-6.9H654V58.5z"/>
			<path class="st0" d="M736.7,114.2h-12.3L773.8,0h13.6l49.3,114.2h-12.7L811.5,85h-62.3L736.7,114.2z M806.9,74.1l-26.5-61.7
				l-26.6,61.7H806.9z"/>
			<path class="st0" d="M873.4,11.2h-38.2V0h88.4v11.2h-38v103h-12.1V11.2z"/>
			<path class="st0" d="M960.4,114.2h-11.9V0h11.9v50.5h65V0h11.9v114.2h-11.9V62h-65V114.2z"/>
		</g>
	</g>
	<g>
		<g>
			<path class="st7" d="M182.3,214l6.8-3.5c3.8,9.3,9.5,14.4,19.1,14.4c4.5,0,8.3-1.2,11.4-3.6c3.2-2.4,4.7-5.5,4.7-9.4
				c0-7.6-5.9-12.1-17.4-14.9c-15.3-3.7-22.3-10.3-22.3-20.7c0-6.2,2.3-11.1,6.9-14.8c4.6-3.7,10.1-5.6,16.6-5.6
				c11.8,0,20.1,6.1,23.6,15.6l-6.7,3.7c-3.1-7.9-8.9-11.9-17.1-11.9c-4.2,0-7.8,1.2-10.9,3.5c-3.1,2.4-4.6,5.5-4.6,9.2
				c0,6.8,4.6,10.4,16,13.4c8.8,2.2,15.1,5.4,18.8,9.5c3.4,3.7,5.2,7.9,5.2,12.6c0,5.7-2.2,10.7-6.6,14.8
				c-4.4,4.1-10.2,6.1-17.5,6.1C195.5,232.3,186.9,226.2,182.3,214z"/>
			<path class="st7" d="M318.7,221.2c-7.2,7.4-16.1,11.1-27,11.1c-10.6,0-19.6-3.6-26.7-10.9c-7.2-7.4-10.7-16.3-10.7-27
				c0-10.8,3.6-20,10.8-27.3c7.2-7.4,16.1-11.1,26.9-11.1c10.6,0,19.5,3.6,26.7,11c7.2,7.3,10.8,16.2,10.8,27
				C329.5,204.7,325.9,213.8,318.7,221.2z M313,172.4c-5.6-6-12.7-9.1-21.2-9.1c-8.5,0-15.5,3-21,9c-5.5,5.9-8.3,13.1-8.3,21.6
				c0,8.6,2.8,15.9,8.4,22c5.6,6,12.7,9.1,21.2,9.1c8.5,0,15.5-3,21-8.9c5.5-6,8.3-13.2,8.3-21.7C321.4,185.8,318.6,178.4,313,172.4
				z"/>
			<path class="st7" d="M364.4,224.2h35.4v7.4h-43.3v-74.8h7.8V224.2z"/>
			<path class="st7" d="M475.6,156.7v45.6c0,19-10.4,30-28.1,30c-8.9,0-15.9-2.7-20.7-8c-4.9-5.3-7.4-12.5-7.4-21.5v-46.1h7.8v45.7
				c0,15.6,8,22.6,20.5,22.6c12.9,0,20-8,20-22.1v-46.2H475.6z"/>
			<path class="st7" d="M523.6,164.1h-25v-7.4h57.9v7.4h-24.9v67.5h-7.9V164.1z"/>
			<path class="st7" d="M588.2,231.5h-7.8v-74.8h7.8V231.5z"/>
			<path class="st7" d="M679.6,221.2c-7.2,7.4-16.1,11.1-26.9,11.1c-10.6,0-19.6-3.6-26.8-10.9c-7.2-7.4-10.7-16.3-10.7-27
				c0-10.8,3.6-20,10.8-27.3c7.2-7.4,16.1-11.1,26.9-11.1c10.6,0,19.5,3.6,26.7,11c7.2,7.3,10.8,16.2,10.8,27
				C690.4,204.7,686.8,213.8,679.6,221.2z M673.9,172.4c-5.7-6-12.7-9.1-21.2-9.1c-8.5,0-15.5,3-21,9c-5.5,5.9-8.3,13.1-8.3,21.6
				c0,8.6,2.8,15.9,8.4,22c5.7,6,12.7,9.1,21.2,9.1c8.5,0,15.5-3,21-8.9c5.5-6,8.3-13.2,8.3-21.7
				C682.3,185.8,679.5,178.4,673.9,172.4z"/>
			<path class="st7" d="M778.5,231.5h-8.4l-44.8-63.7v63.7h-7.7v-74.8h9.1l44.1,62.5v-62.5h7.7V231.5z"/>
			<path class="st7" d="M805.1,214l6.8-3.5c3.8,9.3,9.5,14.4,19.1,14.4c4.5,0,8.3-1.2,11.4-3.6c3.2-2.4,4.7-5.5,4.7-9.4
				c0-7.6-5.9-12.1-17.4-14.9c-15.3-3.7-22.4-10.3-22.4-20.7c0-6.2,2.3-11.1,6.9-14.8c4.6-3.7,10.1-5.6,16.6-5.6
				c11.8,0,20.1,6.1,23.6,15.6l-6.7,3.7c-3.1-7.9-8.9-11.9-17.1-11.9c-4.2,0-7.8,1.2-10.9,3.5c-3,2.4-4.6,5.5-4.6,9.2
				c0,6.8,4.6,10.4,16,13.4c8.8,2.2,15.1,5.4,18.8,9.5c3.4,3.7,5.2,7.9,5.2,12.6c0,5.7-2.2,10.7-6.6,14.8
				c-4.4,4.1-10.2,6.1-17.5,6.1C818.3,232.3,809.7,226.2,805.1,214z"/>
		</g>
	</g>
</g>
</svg>
